# xmcd
#
# Track frame offsets:
# 150
# 15490
# 35205
# 53217
# 77092
# 94940
# 111427
# 132147
# 146252
# 160257
# 173792
#
# Disc length: 2526 seconds
#
# Revision: 0
# Processed by: cddbd v1.5.1PL0 Copyright (c) Steve Scherf et al.
# Submitted via: MacMP3 Pro 5.0 (http://mp3.act2.co.jp/)
#
DISCID=8e09dc0b
DTITLE=๓F๏๎๊>=๊l&๑ำ๑ฯ๊? - โ_วรษ^ษNษVล[
DYEAR=1900
DGENRE=
TTITLE0=โ'
TTITLE1=๏๓วร๊Fว?ๅฉว?วขว?วม
TTITLE2=๋ยวดวป๋ยวดวป่๓วรโร
TTITLE3=ุ๊วรวฌว'ว?วด
TTITLE4=๓[์?วรํจวฉวม
TTITLE5=๊ท็๋
TTITLE6=่กวถว?๑บ๋O
TTITLE7=วฎวตวทวอวป๏๛
TTITLE8=์~้๛ไ'
TTITLE9=๑h๎gํม
TTITLE10=โ_วรษ^ษNษVล[
EXTD=
EXTT0=
EXTT1=
EXTT2=
EXTT3=
EXTT4=
EXTT5=
EXTT6=
EXTT7=
EXTT8=
EXTT9=
EXTT10=
PLAYORDER=
